<svg width="40" height="40" viewBox="0 0 40 40" fill="none" xmlns="http://www.w3.org/2000/svg">
<circle cx="20" cy="20" r="20" fill="#171717"/>
<path d="M12.5 14.1667H18.3333M18.3333 14.1667C18.3333 15.0871 19.0795 15.8333 20 15.8333C20.9205 15.8333 21.6667 15.0871 21.6667 14.1667M18.3333 14.1667C18.3333 13.2462 19.0795 12.5 20 12.5C20.9205 12.5 21.6667 13.2462 21.6667 14.1667M12.5 20H20M25.8333 20H27.5M25.8333 20C25.8333 20.9205 25.0871 21.6667 24.1667 21.6667C23.2462 21.6667 22.5 20.9205 22.5 20C22.5 19.0795 23.2462 18.3333 24.1667 18.3333C25.0871 18.3333 25.8333 19.0795 25.8333 20ZM21.6667 14.1667H27.5M20 25.8333H27.5M12.5 25.8333H14.1667M14.1667 25.8333C14.1667 26.7538 14.9129 27.5 15.8333 27.5C16.7538 27.5 17.5 26.7538 17.5 25.8333C17.5 24.9129 16.7538 24.1667 15.8333 24.1667C14.9129 24.1667 14.1667 24.9129 14.1667 25.8333Z" stroke="white" stroke-linecap="round"/>
</svg>
